{
    "streams": [
        {
            "index": 0,
            "codec_name": "h264",
            "codec_long_name": "H.264 / AVC / MPEG-4 AVC / MPEG-4 part 10",
            "profile": "High",
            "codec_type": "video",
            "codec_time_base": "1001/48000",
            "codec_tag_string": "[0][0][0][0]",
            "codec_tag": "0x0000",
            "width": 1920,
            "height": 804,
            "coded_width": 1920,
            "coded_height": 804,
            "has_b_frames": 2,
            "sample_aspect_ratio": "1:1",
            "display_aspect_ratio": "160:67",
            "pix_fmt": "yuv420p",
            "level": 41,
            "color_range": "tv",
            "color_space": "bt709",
            "chroma_location": "left",
            "field_order": "progressive",
            "refs": 1,
            "is_avc": "true",
            "nal_length_size": "4",
            "r_frame_rate": "24000/1001",
            "avg_frame_rate": "24000/1001",
            "time_base": "1/1000",
            "start_pts": 0,
            "start_time": "0.000000",
            "bits_per_raw_sample": "8",
            "disposition": {
                "default": 0,
                "dub": 0,
                "original": 0,
                "comment": 0,
                "lyrics": 0,
                "karaoke": 0,
                "forced": 0,
                "hearing_impaired": 0,
                "visual_impaired": 0,
                "clean_effects": 0,
                "attached_pic": 0,
                "timed_thumbnails": 0
            },
            "tags": {
                "language": "eng",
                "BPS": "12191830",
                "BPS-eng": "12191830",
                "DURATION": "01:50:47.600000000",
                "DURATION-eng": "01:50:47.600000000",
                "NUMBER_OF_FRAMES": "159383",
                "NUMBER_OF_FRAMES-eng": "159383",
                "NUMBER_OF_BYTES": "10130801316",
                "NUMBER_OF_BYTES-eng": "10130801316",
                "_STATISTICS_WRITING_APP": "mkvmerge v8.3.0 ('Over the Horizon') 64bit",
                "_STATISTICS_WRITING_APP-eng": "mkvmerge v8.3.0 ('Over the Horizon') 64bit",
                "_STATISTICS_WRITING_DATE_UTC": "2017-05-03 19:11:11",
                "_STATISTICS_WRITING_DATE_UTC-eng": "2017-05-03 19:11:11",
                "_STATISTICS_TAGS": "BPS DURATION NUMBER_OF_FRAMES NUMBER_OF_BYTES",
                "_STATISTICS_TAGS-eng": "BPS DURATION NUMBER_OF_FRAMES NUMBER_OF_BYTES"
            }
        },
        {
            "index": 1,
            "codec_name": "ac3",
            "codec_long_name": "ATSC A/52A (AC-3)",
            "codec_type": "audio",
            "codec_time_base": "1/48000",
            "codec_tag_string": "[0][0][0][0]",
            "codec_tag": "0x0000",
            "sample_fmt": "fltp",
            "sample_rate": "48000",
            "channels": 6,
            "channel_layout": "5.1(side)",
            "bits_per_sample": 0,
            "dmix_mode": "-1",
            "ltrt_cmixlev": "-1.000000",
            "ltrt_surmixlev": "-1.000000",
            "loro_cmixlev": "-1.000000",
            "loro_surmixlev": "-1.000000",
            "r_frame_rate": "0/0",
            "avg_frame_rate": "0/0",
            "time_base": "1/1000",
            "start_pts": 0,
            "start_time": "0.000000",
            "bit_rate": "448000",
            "disposition": {
                "default": 1,
                "dub": 0,
                "original": 0,
                "comment": 0,
                "lyrics": 0,
                "karaoke": 0,
                "forced": 0,
                "hearing_impaired": 0,
                "visual_impaired": 0,
                "clean_effects": 0,
                "attached_pic": 0,
                "timed_thumbnails": 0
            },
            "tags": {
                "language": "hun",
                "title": "DD 5.1 @ 448 kbps",
                "BPS": "448000",
                "BPS-eng": "448000",
                "DURATION": "01:50:41.120000000",
                "DURATION-eng": "01:50:41.120000000",
                "NUMBER_OF_FRAMES": "207535",
                "NUMBER_OF_FRAMES-eng": "207535",
                "NUMBER_OF_BYTES": "371902720",
                "NUMBER_OF_BYTES-eng": "371902720",
                "_STATISTICS_WRITING_APP": "mkvmerge v8.3.0 ('Over the Horizon') 64bit",
                "_STATISTICS_WRITING_APP-eng": "mkvmerge v8.3.0 ('Over the Horizon') 64bit",
                "_STATISTICS_WRITING_DATE_UTC": "2017-05-03 19:11:11",
                "_STATISTICS_WRITING_DATE_UTC-eng": "2017-05-03 19:11:11",
                "_STATISTICS_TAGS": "BPS DURATION NUMBER_OF_FRAMES NUMBER_OF_BYTES",
                "_STATISTICS_TAGS-eng": "BPS DURATION NUMBER_OF_FRAMES NUMBER_OF_BYTES"
            }
        },
        {
            "index": 2,
            "codec_name": "dts",
            "codec_long_name": "DCA (DTS Coherent Acoustics)",
            "profile": "DTS",
            "codec_type": "audio",
            "codec_time_base": "1/48000",
            "codec_tag_string": "[0][0][0][0]",
            "codec_tag": "0x0000",
            "sample_fmt": "fltp",
            "sample_rate": "48000",
            "channels": 6,
            "channel_layout": "5.1(side)",
            "bits_per_sample": 0,
            "r_frame_rate": "0/0",
            "avg_frame_rate": "0/0",
            "time_base": "1/1000",
            "start_pts": 11,
            "start_time": "0.011000",
            "bit_rate": "1536000",
            "disposition": {
                "default": 0,
                "dub": 0,
                "original": 0,
                "comment": 0,
                "lyrics": 0,
                "karaoke": 0,
                "forced": 0,
                "hearing_impaired": 0,
                "visual_impaired": 0,
                "clean_effects": 0,
                "attached_pic": 0,
                "timed_thumbnails": 0
            },
            "tags": {
                "language": "eng",
                "title": "DTS 5.1 @ 1510 kbps",
                "BPS": "1509000",
                "BPS-eng": "1509000",
                "DURATION": "01:50:47.595000000",
                "DURATION-eng": "01:50:47.595000000",
                "NUMBER_OF_FRAMES": "623212",
                "NUMBER_OF_FRAMES-eng": "623212",
                "NUMBER_OF_BYTES": "1253902676",
                "NUMBER_OF_BYTES-eng": "1253902676",
                "_STATISTICS_WRITING_APP": "mkvmerge v8.3.0 ('Over the Horizon') 64bit",
                "_STATISTICS_WRITING_APP-eng": "mkvmerge v8.3.0 ('Over the Horizon') 64bit",
                "_STATISTICS_WRITING_DATE_UTC": "2017-05-03 19:11:11",
                "_STATISTICS_WRITING_DATE_UTC-eng": "2017-05-03 19:11:11",
                "_STATISTICS_TAGS": "BPS DURATION NUMBER_OF_FRAMES NUMBER_OF_BYTES",
                "_STATISTICS_TAGS-eng": "BPS DURATION NUMBER_OF_FRAMES NUMBER_OF_BYTES"
            }
        },
        {
            "index": 3,
            "codec_name": "subrip",
            "codec_long_name": "SubRip subtitle",
            "codec_type": "subtitle",
            "codec_time_base": "0/1",
            "codec_tag_string": "[0][0][0][0]",
            "codec_tag": "0x0000",
            "r_frame_rate": "0/0",
            "avg_frame_rate": "0/0",
            "time_base": "1/1000",
            "start_pts": 0,
            "start_time": "0.000000",
            "duration_ts": 6647606,
            "duration": "6647.606000",
            "disposition": {
                "default": 0,
                "dub": 0,
                "original": 0,
                "comment": 0,
                "lyrics": 0,
                "karaoke": 0,
                "forced": 0,
                "hearing_impaired": 0,
                "visual_impaired": 0,
                "clean_effects": 0,
                "attached_pic": 0,
                "timed_thumbnails": 0
            },
            "tags": {
                "language": "hun",
                "title": "Forced",
                "BPS": "6",
                "BPS-eng": "6",
                "DURATION": "01:32:45.226000000",
                "DURATION-eng": "01:32:45.226000000",
                "NUMBER_OF_FRAMES": "130",
                "NUMBER_OF_FRAMES-eng": "130",
                "NUMBER_OF_BYTES": "4735",
                "NUMBER_OF_BYTES-eng": "4735",
                "_STATISTICS_WRITING_APP": "mkvmerge v8.3.0 ('Over the Horizon') 64bit",
                "_STATISTICS_WRITING_APP-eng": "mkvmerge v8.3.0 ('Over the Horizon') 64bit",
                "_STATISTICS_WRITING_DATE_UTC": "2017-05-03 19:11:11",
                "_STATISTICS_WRITING_DATE_UTC-eng": "2017-05-03 19:11:11",
                "_STATISTICS_TAGS": "BPS DURATION NUMBER_OF_FRAMES NUMBER_OF_BYTES",
                "_STATISTICS_TAGS-eng": "BPS DURATION NUMBER_OF_FRAMES NUMBER_OF_BYTES"
            }
        },
        {
            "index": 4,
            "codec_name": "subrip",
            "codec_long_name": "SubRip subtitle",
            "codec_type": "subtitle",
            "codec_time_base": "0/1",
            "codec_tag_string": "[0][0][0][0]",
            "codec_tag": "0x0000",
            "r_frame_rate": "0/0",
            "avg_frame_rate": "0/0",
            "time_base": "1/1000",
            "start_pts": 0,
            "start_time": "0.000000",
            "duration_ts": 6647606,
            "duration": "6647.606000",
            "disposition": {
                "default": 0,
                "dub": 0,
                "original": 0,
                "comment": 0,
                "lyrics": 0,
                "karaoke": 0,
                "forced": 0,
                "hearing_impaired": 0,
                "visual_impaired": 0,
                "clean_effects": 0,
                "attached_pic": 0,
                "timed_thumbnails": 0
            },
            "tags": {
                "language": "hun",
                "BPS": "91",
                "BPS-eng": "91",
                "DURATION": "01:46:48.667000000",
                "DURATION-eng": "01:46:48.667000000",
                "NUMBER_OF_FRAMES": "1729",
                "NUMBER_OF_FRAMES-eng": "1729",
                "NUMBER_OF_BYTES": "72914",
                "NUMBER_OF_BYTES-eng": "72914",
                "_STATISTICS_WRITING_APP": "mkvmerge v8.3.0 ('Over the Horizon') 64bit",
                "_STATISTICS_WRITING_APP-eng": "mkvmerge v8.3.0 ('Over the Horizon') 64bit",
                "_STATISTICS_WRITING_DATE_UTC": "2017-05-03 19:11:11",
                "_STATISTICS_WRITING_DATE_UTC-eng": "2017-05-03 19:11:11",
                "_STATISTICS_TAGS": "BPS DURATION NUMBER_OF_FRAMES NUMBER_OF_BYTES",
                "_STATISTICS_TAGS-eng": "BPS DURATION NUMBER_OF_FRAMES NUMBER_OF_BYTES"
            }
        },
        {
            "index": 5,
            "codec_name": "subrip",
            "codec_long_name": "SubRip subtitle",
            "codec_type": "subtitle",
            "codec_time_base": "0/1",
            "codec_tag_string": "[0][0][0][0]",
            "codec_tag": "0x0000",
            "r_frame_rate": "0/0",
            "avg_frame_rate": "0/0",
            "time_base": "1/1000",
            "start_pts": 0,
            "start_time": "0.000000",
            "duration_ts": 6647606,
            "duration": "6647.606000",
            "disposition": {
                "default": 0,
                "dub": 0,
                "original": 0,
                "comment": 0,
                "lyrics": 0,
                "karaoke": 0,
                "forced": 0,
                "hearing_impaired": 0,
                "visual_impaired": 0,
                "clean_effects": 0,
                "attached_pic": 0,
                "timed_thumbnails": 0
            },
            "tags": {
                "language": "eng",
                "BPS": "95",
                "BPS-eng": "95",
                "DURATION": "01:46:25.586000000",
                "DURATION-eng": "01:46:25.586000000",
                "NUMBER_OF_FRAMES": "2286",
                "NUMBER_OF_FRAMES-eng": "2286",
                "NUMBER_OF_BYTES": "76563",
                "NUMBER_OF_BYTES-eng": "76563",
                "_STATISTICS_WRITING_APP": "mkvmerge v8.3.0 ('Over the Horizon') 64bit",
                "_STATISTICS_WRITING_APP-eng": "mkvmerge v8.3.0 ('Over the Horizon') 64bit",
                "_STATISTICS_WRITING_DATE_UTC": "2017-05-03 19:11:11",
                "_STATISTICS_WRITING_DATE_UTC-eng": "2017-05-03 19:11:11",
                "_STATISTICS_TAGS": "BPS DURATION NUMBER_OF_FRAMES NUMBER_OF_BYTES",
                "_STATISTICS_TAGS-eng": "BPS DURATION NUMBER_OF_FRAMES NUMBER_OF_BYTES"
            }
        }
    ],
    "format": {
        "filename": "Office Christmas Party (2016).mkv",
        "nb_streams": 6,
        "nb_programs": 0,
        "format_name": "matroska,webm",
        "format_long_name": "Matroska / WebM",
        "start_time": "0.000000",
        "duration": "6647.606000",
        "size": "11759225892",
        "bit_rate": "14151531",
        "probe_score": 100,
        "tags": {
            "encoder": "libebml v1.3.1 + libmatroska v1.4.2",
            "creation_time": "2017-05-03T19:11:11.000000Z"
        }
    }
}
